<svg width="181" height="54" xmlns="http://www.w3.org/2000/svg" xml:space="preserve" version="1.1">
 <metadata id="metadata8">image/svg+xml</metadata>
 <defs id="defs6">
  <clipPath id="clipPath56" clipPathUnits="userSpaceOnUse">
   <path id="path54" d="m205.09801,176.105l-0.743,0.711c-2.91,3.07901 -4.62801,7.86 -4.62801,14.05101l0,-1.457l0,0l0,221.16c0,0.01999 0,0.035 0,0.05099c0,-0.01901 0,-0.035 0,-0.05499l0,-1.461c0,6.70398 2.00301,11.754 5.35901,14.78198l123.89799,-123.89499l-123.886,-123.88701m-5.371,234.528c0,0.55099 0.015,1.086 0.043,1.61301c-0.028,-0.52301 -0.043,-1.06201 -0.043,-1.61301m0.043,1.63699c0,0.00702 0,0.01501 0.00301,0.02301c-0.00301,-0.008 -0.00301,-0.01599 -0.00301,-0.02301m0.00301,0.07001c0,0.004 0,0.008 0,0.01199c0,-0.004 0,-0.008 0,-0.01199"/>
  </clipPath>
  <clipPath id="clipPath80" clipPathUnits="userSpaceOnUse">
   <path id="path78" d="m370.27701,257.215l0,0l0.94202,0.535l48.92899,27.80099c4.66501,2.65201 7.77399,5.867 9.32501,9.26901c-1.54703,-3.40201 -4.65701,-6.621 -9.32501,-9.27301l-48.92899,-27.80099l-0.94202,-0.53101m0.01199,1.465l-41.30499,41.31201l41.30099,41.30499l49.86301,-28.328c6.332,-3.59799 9.88699,-8.23499 10.48099,-12.97299c0,-0.004 0,-0.01199 0,-0.01901c-0.59399,-4.72699 -4.14899,-9.36798 -10.48099,-12.965l-49.85901,-28.332"/>
  </clipPath>
  <clipPath id="clipPath100" clipPathUnits="userSpaceOnUse">
   <path id="path98" d="m213.92999,171.38699c-3.461,0 -6.481,1.125 -8.836,3.25l0.004,0.004c2.355,-2.125 5.379,-3.254 8.84,-3.254c0.3,0 0.605,0.008 0.914,0.02299c-0.313,-0.015 -0.62199,-0.02299 -0.922,-0.02299m0.004,1.465c-3.461,-0.004 -6.481,1.125 -8.836,3.25l0,0l0,0.00301l123.88599,123.88701l41.30502,-41.31201l0,0l-145.15201,-82.47299c-4.01601,-2.27701 -7.821,-3.355 -11.203,-3.355m-8.871,1.812c-0.21899,0.19901 -0.43401,0.41 -0.645,0.629l0.645,-0.629"/>
  </clipPath>
  <clipPath id="clipPath116" clipPathUnits="userSpaceOnUse">
   <path id="path114" d="m328.98401,299.992l0,0l-123.89801,123.89499c2.355,2.121 5.371,3.246 8.828,3.246c3.39099,0 7.19901,-1.082 11.22299,-3.36301l145.14801,-82.47299l-41.30103,-41.30499m42.23502,42.23798l-146.082,83c-4.024,2.28201 -7.832,3.36401 -11.22301,3.36401c-0.01599,0 -0.02699,0 -0.043,0c0.02,0 0.035,0 0.05901,0c3.383,0 7.187,-1.078 11.207,-3.36002l146.082,-83.00397m-157.379,86.36398l0,0l0,0"/>
  </clipPath>
  <clipPath id="clipPath140" clipPathUnits="userSpaceOnUse">
   <path id="path138" d="m370.27701,257.215l0,0l0.94202,0.535l-0.94202,-0.535"/>
  </clipPath>
  <clipPath id="clipPath160" clipPathUnits="userSpaceOnUse">
   <path id="path158" d="m213.938,171.38699c-3.461,0 -6.485,1.129 -8.84,3.254l-0.00401,-0.004c-0.008,0.008 -0.01999,0.019 -0.03099,0.02699l-0.645,0.629c-0.02,0.02 -0.039,0.043 -0.063,0.06601l0.74301,0.743c2.355,-2.125 5.375,-3.254 8.836,-3.25c3.38199,0 7.187,1.078 11.20299,3.355l145.15201,82.47301l0.92999,-0.92999l-0.94199,-0.535l-145.14001,-82.46901c-3.65999,-2.07399 -7.14099,-3.15599 -10.28499,-3.336c-0.30901,-0.015 -0.614,-0.02299 -0.914,-0.02299"/>
  </clipPath>
  <clipPath id="clipPath178" clipPathUnits="userSpaceOnUse">
   <path id="path176" d="m204.355,175.35899l0,0c-2.90999,3.07899 -4.62799,7.856 -4.62799,14.05099l0,1.457c0,-6.19099 1.718,-10.972 4.62799,-14.05099l0.74301,-0.711l-0.74301,-0.746"/>
  </clipPath>
  <clipPath id="clipPath202" clipPathUnits="userSpaceOnUse">
   <path id="path200" d="m204.355,175.35899l0,0l0,0l0.74301,0.746l0,-0.00301l-0.74301,-0.743"/>
  </clipPath>
  <clipPath id="clipPath220" clipPathUnits="userSpaceOnUse">
   <path id="path218" d="m371.21899,257.75l0,0l-0.92999,0.92999l49.85901,28.332c6.332,3.59702 9.88699,8.23801 10.48099,12.965c0,-1.73499 -0.38699,-3.46899 -1.15601,-5.15698c-1.55099,-3.40201 -4.66,-6.617 -9.32498,-9.26901l-48.92902,-27.80099"/>
  </clipPath>
  <clipPath id="clipPath242" clipPathUnits="userSpaceOnUse">
   <path id="path240" d="m430.629,299.996c-0.59399,4.73801 -4.14899,9.375 -10.48099,12.97299l-49.86301,28.328l0.92999,0.92999l0.004,0l48.92902,-27.80099c6.98099,-3.96899 10.47699,-9.19901 10.48099,-14.42999"/>
  </clipPath>
  <clipPath id="clipPath264" clipPathUnits="userSpaceOnUse">
   <path id="path262" d="m199.72701,409.10501l0,1.461c0,0.01999 0,0.03601 0,0.05499c0,0.004 0,0.008 0,0.01199c0,0.55103 0.015,1.09003 0.043,1.61301c0,0.008 0,0.01602 0,0.02402c0,0.00699 0,0.01498 0.00301,0.02298c0,0.01602 0,0.03101 0,0.047c0,0.00403 0,0.00803 0,0.01202c0.30099,5.332 1.957,9.492 4.58199,12.26898l0,0l0,0l0.731,-0.73398c-3.356,-3.02802 -5.35899,-8.078 -5.35899,-14.78201m5.33899,16.215l0.028,0.02802c-0.008,-0.01202 -0.01999,-0.02002 -0.028,-0.02802"/>
  </clipPath>
  <clipPath id="clipPath290" clipPathUnits="userSpaceOnUse">
   <path id="path288" d="m370.285,341.297l-145.14801,82.47299c-4.024,2.28101 -7.832,3.36301 -11.22301,3.36301c-3.457,0 -6.47299,-1.125 -8.828,-3.246l-0.73099,0.73401l0,0c0.23099,0.24197 0.465,0.47699 0.711,0.69897c0.008,0.00803 0.01999,0.01602 0.028,0.02402c2.336,2.10501 5.31999,3.23001 8.746,3.25l0,0c0.008,0 0.019,0 0.03099,0c0.01601,0 0.02701,0 0.043,0c3.39101,0 7.19901,-1.082 11.22301,-3.36401l146.082,-83l-0.004,-0.00299l-0.92999,-0.92999"/>
  </clipPath>
  <linearGradient id="linearGradient70" spreadMethod="pad" y2="0.27836" x2="-0.38338" y1="0.95567" x1="0.91501">
   <stop stop-color="#00a0ff" id="stop58" offset="0"/>
   <stop stop-color="#00a1ff" id="stop60" offset="0.00657"/>
   <stop stop-color="#00beff" id="stop62" offset="0.2601"/>
   <stop stop-color="#00d2ff" id="stop64" offset="0.5122"/>
   <stop stop-color="#00dfff" id="stop66" offset="0.7604"/>
   <stop stop-color="#00e3ff" id="stop68" offset="1"/>
  </linearGradient>
  <linearGradient id="linearGradient90" spreadMethod="pad" y2="0.50868" x2="-1.30464" y1="0.50868" x1="1.0759">
   <stop stop-color="#ffe000" id="stop82" offset="0"/>
   <stop stop-color="#ffbd00" id="stop84" offset="0.4087"/>
   <stop stop-color="#ffa500" id="stop86" offset="0.7754"/>
   <stop stop-color="#ff9c00" id="stop88" offset="1"/>
  </linearGradient>
  <linearGradient id="linearGradient106" spreadMethod="pad" y2="-0.9481" x2="-0.5048" y1="0.82152" x1="0.86725">
   <stop stop-color="#ff3a44" id="stop102" offset="0"/>
   <stop stop-color="#c31162" id="stop104" offset="1"/>
  </linearGradient>
  <linearGradient id="linearGradient128" spreadMethod="pad" y2="0.75132" x2="0.41841" y1="1.54155" x1="-0.1933">
   <stop stop-color="#32a071" id="stop118" offset="0"/>
   <stop stop-color="#2da771" id="stop120" offset="0.0685"/>
   <stop stop-color="#15cf74" id="stop122" offset="0.4762"/>
   <stop stop-color="#06e775" id="stop124" offset="0.8009"/>
   <stop stop-color="#00f076" id="stop126" offset="1"/>
  </linearGradient>
  <linearGradient id="linearGradient150" spreadMethod="pad" y2="79.94524" x2="-184.60717" y1="79.94524" x1="72.25667">
   <stop stop-color="#ccb300" id="stop142" offset="0"/>
   <stop stop-color="#cc9700" id="stop144" offset="0.4087"/>
   <stop stop-color="#cc8400" id="stop146" offset="0.7754"/>
   <stop stop-color="#cc7d00" id="stop148" offset="1"/>
  </linearGradient>
  <linearGradient id="linearGradient166" spreadMethod="pad" y2="-1.3968" x2="-0.50141" y1="1.21031" x1="0.86247">
   <stop stop-color="#cc2e36" id="stop162" offset="0"/>
   <stop stop-color="#9c0e4e" id="stop164" offset="1"/>
  </linearGradient>
  <linearGradient id="linearGradient192" spreadMethod="pad" y2="4.49568" x2="-9.22621" y1="15.31752" x1="22.02028">
   <stop stop-color="#008de0" id="stop180" offset="0"/>
   <stop stop-color="#008de0" id="stop182" offset="0.00657"/>
   <stop stop-color="#00a7e0" id="stop184" offset="0.2601"/>
   <stop stop-color="#00b8e0" id="stop186" offset="0.5122"/>
   <stop stop-color="#00c4e0" id="stop188" offset="0.7604"/>
   <stop stop-color="#00c7e0" id="stop190" offset="1"/>
  </linearGradient>
  <linearGradient id="linearGradient208" spreadMethod="pad" y2="-168.77026" x2="-112.6066" y1="136.29988" x1="193.69148">
   <stop stop-color="#e0333c" id="stop204" offset="0"/>
   <stop stop-color="#ab0f56" id="stop206" offset="1"/>
  </linearGradient>
  <linearGradient id="linearGradient230" spreadMethod="pad" y2="1.00021" x2="-2.88225" y1="1.00021" x1="1.12786">
   <stop stop-color="#e0c500" id="stop222" offset="0"/>
   <stop stop-color="#e0a600" id="stop224" offset="0.4087"/>
   <stop stop-color="#e09100" id="stop226" offset="0.7754"/>
   <stop stop-color="#e08900" id="stop228" offset="1"/>
  </linearGradient>
  <linearGradient id="linearGradient252" spreadMethod="pad" y2="-0.00024" x2="-2.88199" y1="-0.00024" x1="1.12785">
   <stop stop-color="#ffe840" id="stop244" offset="0"/>
   <stop stop-color="#ffce40" id="stop246" offset="0.4087"/>
   <stop stop-color="#ffbc40" id="stop248" offset="0.7754"/>
   <stop stop-color="#ffb540" id="stop250" offset="1"/>
  </linearGradient>
  <linearGradient id="linearGradient278" spreadMethod="pad" y2="-10.09831" x2="-9.23311" y1="0.23382" x1="22.03675">
   <stop stop-color="#40b8ff" id="stop266" offset="0"/>
   <stop stop-color="#40b9ff" id="stop268" offset="0.00657"/>
   <stop stop-color="#40ceff" id="stop270" offset="0.2601"/>
   <stop stop-color="#40ddff" id="stop272" offset="0.5122"/>
   <stop stop-color="#40e7ff" id="stop274" offset="0.7604"/>
   <stop stop-color="#40eaff" id="stop276" offset="1"/>
  </linearGradient>
  <linearGradient id="linearGradient302" spreadMethod="pad" y2="0.63365" x2="0.42096" y1="1.79778" x1="-0.18807">
   <stop stop-color="#65b895" id="stop292" offset="0"/>
   <stop stop-color="#62bd95" id="stop294" offset="0.0685"/>
   <stop stop-color="#50db97" id="stop296" offset="0.4762"/>
   <stop stop-color="#44ed98" id="stop298" offset="0.8009"/>
   <stop stop-color="#40f498" id="stop300" offset="1"/>
  </linearGradient>
 </defs>
 <g>
  <title>Layer 1</title>
  <g transform="matrix(1.33333 0 0 -1.33333 0 80)"   id="g10">
   <g transform="translate(-9.75 9.75) scale(0.1 0.1)" id="g12">
    <path fill-rule="nonzero" fill="#ffffff" id="path14" d="m1550,0l-1550,0l0,600l1550,0l0,-600m-1450,150l0,0c0,-27.5 22.5,-50 50,-50l1250,0c27.5,0 50,22.5 50,50l0,300l0,0l0,0c0,27.5 -22.5,50 -50,50l-1250,0c-27.5,0 -50,-22.5 -50,-50l0,-300l0,0"/>
    <path fill-rule="nonzero" fill="#000000" id="path16" d="m1400,100l-1250,0c-27.5,0 -50,22.5 -50,50l0,300c0,27.5 22.5,50 50,50l1250,0c27.5,0 50,-22.5 50,-50l0,-300c0,-27.5 -22.5,-50 -50,-50"/>
    <path fill-rule="nonzero" fill="#a6a6a6" id="path18" d="m1400,500l-1250,0c-27.5,0 -50,-22.5 -50,-50l0,-300c0,-27.5 22.5,-50 50,-50l1250,0c27.5,0 50,22.5 50,50l0,300c0,27.5 -22.5,50 -50,50m0,-8c23.16003,0 42,-18.84399 42,-42l0,-300c0,-23.16 -18.83997,-42.004 -42,-42.004l-1250,0c-23.156,0 -42,18.84399 -42,42.004l0,300c0,23.15601 18.844,42 42,42l1250,0"/>
    <path fill-rule="nonzero" fill="#ffffff" id="path20" d="m574.18402,397.56601c0,-8.37799 -2.48102,-15.04999 -7.45001,-20.02701c-5.64398,-5.918 -13,-8.879 -22.04297,-8.879c-8.66003,0 -16.02301,3 -22.078,9.008c-6.06604,6.004 -9.09302,13.44901 -9.09302,22.332c0,8.88702 3.02698,16.328 9.09302,22.336c6.05499,6.004 13.41797,9.00803 22.078,9.00803c4.297,0 8.41095,-0.84003 12.31696,-2.51602c3.90601,-1.67999 7.039,-3.91 9.383,-6.703l-5.27399,-5.27698c-3.97198,4.746 -9.44098,7.11697 -16.42596,7.11697c-6.31604,0 -11.77704,-2.21899 -16.38605,-6.65997c-4.60999,-4.44601 -6.914,-10.211 -6.914,-17.30502c0,-7.09399 2.30402,-12.85898 6.914,-17.30499c4.60901,-4.44101 10.07001,-6.66 16.38605,-6.66c6.69995,0 12.28595,2.23102 16.758,6.69901c2.90295,2.91101 4.58197,6.957 5.03101,12.15302l-21.789,0l0,7.207l29.07495,0c0.28101,-1.56702 0.41803,-3.07101 0.41803,-4.52802"/>
    <path fill-rule="nonzero" fill="#ffffff" id="path22" d="m574.18402,397.56601l-1,0c-0.008,-8.18701 -2.39899,-14.54599 -7.15698,-19.32001l-0.01105,-0.008l-0.00397,-0.008c-5.46503,-5.71399 -12.48901,-8.55801 -21.32098,-8.57001c-8.42902,0.01199 -15.48401,2.88699 -21.375,8.715c-5.87799,5.84 -8.78503,12.96902 -8.79602,21.625c0.01099,8.66 2.91803,15.785 8.79602,21.621c5.89099,5.832 12.94598,8.711 21.375,8.72302c4.16797,0 8.13696,-0.81302 11.922,-2.43402c3.789,-1.633 6.78198,-3.77298 9.01196,-6.42999l0.76599,0.64499l-0.70697,0.707l-5.27399,-5.28101l0.70697,-0.70297l0.77002,0.63998c-4.15698,4.98102 -9.992,7.492 -17.19598,7.47699c-6.55005,0.00803 -12.31201,-2.332 -17.078,-6.94199c-4.81201,-4.625 -7.23004,-10.71399 -7.22205,-18.02301c-0.008,-7.30899 2.41003,-13.39798 7.22205,-18.02298c4.76599,-4.61002 10.52795,-6.95001 17.078,-6.94202c6.922,-0.01199 12.82098,2.336 17.46497,6.992l0,0c3.10199,3.11002 4.85999,7.418 5.32098,12.77399l0.09302,1.08603l-21.87897,0l0,5.207l28.07495,0l0,1l-0.98499,-0.17603c0.27399,-1.51599 0.40302,-2.957 0.40302,-4.35199l1,0l1,0c0,1.51999 -0.14099,3.082 -0.43402,4.707l-0.14801,0.82101l-30.91095,0l0,-8.207l0,-1l22.789,0l0,1l-0.99603,0.086c-0.44098,-5.03201 -2.04297,-8.82101 -4.742,-11.53201l0,0c-4.297,-4.28101 -9.57001,-6.39401 -16.05096,-6.40601c-6.08203,0.008 -11.242,2.10202 -15.69104,6.379c-4.40601,4.26199 -6.59796,9.703 -6.60901,16.586c0.01105,6.883 2.203,12.32401 6.60901,16.586c4.44904,4.27701 9.60901,6.371 15.69104,6.379c6.76196,-0.01599 11.86798,-2.25 15.66095,-6.76199l0.703,-0.836l6.04303,6.05099l0.64801,0.64801l-0.59003,0.70001c-2.45697,2.92899 -5.72998,5.254 -9.75397,6.97998c-4.03101,1.73102 -8.28503,2.59802 -12.711,2.59802c-8.89001,0.008 -16.56201,-3.117 -22.78503,-9.30103c-6.24597,-6.172 -9.39398,-13.92999 -9.38599,-23.043c-0.008,-9.10898 3.14001,-16.871 9.39001,-23.047c6.21899,-6.17999 13.89099,-9.30099 22.78101,-9.293c9.258,-0.008 16.93799,3.06702 22.76599,9.18802l-0.72302,0.69098l0.70703,-0.707c5.17999,5.17599 7.75,12.168 7.74298,20.73401l-1,0"/>
    <path fill-rule="nonzero" fill="#ffffff" id="path24" d="m620.27698,422.629l-27.32397,0l0,-19.02399l24.64099,0l0,-7.21002l-24.64099,0l0,-19.02399l27.32397,0l0,-7.371l-35.02698,0l0,60l35.02698,0l0,-7.371"/>
    <path fill-rule="nonzero" fill="#ffffff" id="path26" d="m620.27698,422.629l0,1l-28.32397,0l0,-21.02399l24.64099,0l0,-5.207l-24.64099,-0.00302l0,-21.02399l27.32397,0l0,-5.371l-33.02698,0l0,58l33.02698,0l0,-6.371l1,0l0,1l0,-1l1,0l0,7.371l0,1l-37.02698,0l0,-62l37.02698,0l0,8.371l0,1l-27.32397,0l0,17.02399l24.64099,0l0,8.21002l0,1l-24.64099,0l0,17.02399l27.32397,0l0,1l-1,0"/>
    <path fill-rule="nonzero" fill="#ffffff" id="path28" d="m652.789,370l-7.71503,0l0,52.629l-16.758,0l0,7.371l41.23102,0l0,-7.371l-16.758,0l0,-52.629"/>
    <path fill-rule="nonzero" fill="#ffffff" id="path30" d="m652.789,370l0,1l-6.71503,0l0,52.629l-16.758,0l0,5.371l39.23102,0l0,-5.371l-16.758,0l0,-53.629l1,0l0,1l0,-1l1,0l0,51.629l16.758,0l0,8.371l0,1l-43.23102,0l0,-8.371l0,-1l16.758,0l0,-52.629l8.71503,0l1,0l0,1l-1,0"/>
    <path fill-rule="nonzero" fill="#ffffff" id="path32" d="m699.37903,370l0,60l7.70703,0l0,-60l-7.70703,0"/>
    <path fill-rule="nonzero" fill="#ffffff" id="path34" d="m699.37903,370l1,0l0,59l5.70703,0l0,-58l-6.70703,0l0,-1l1,0l-1,0l0,-1l7.70703,0l1,0l0,62l-8.70703,0l-1,0l0,-62l1,0l0,1"/>
    <path fill-rule="nonzero" fill="#ffffff" id="path36" d="m741.28497,370l-7.71503,0l0,52.629l-16.75696,0l0,7.371l41.22998,0l0,-7.371l-16.758,0l0,-52.629"/>
    <path fill-rule="nonzero" fill="#ffffff" id="path38" d="m741.28497,370l0,1l-6.71503,0l0,52.629l-16.75696,0l0,5.371l39.22998,0l0,-5.371l-16.758,0l0,-53.629l1,0l0,1l0,-1l1,0l0,51.629l16.758,0l0,8.371l0,1l-43.22998,0l0,-8.371l0,-1l16.75702,0l0,-52.629l8.71503,0l1,0l0,1l-1,0"/>
    <path fill-rule="nonzero" fill="#ffffff" id="path40" d="m797.79303,382.77701c4.44098,-4.496 9.875,-6.742 16.30103,-6.742c6.42596,0 11.86298,2.246 16.297,6.742c4.44501,4.496 6.672,10.24301 6.672,17.22299c0,6.98001 -2.22699,12.72702 -6.672,17.22302c-4.43402,4.496 -9.87103,6.74197 -16.297,6.74197c-6.42603,0 -11.86005,-2.24597 -16.30103,-6.74197c-4.43402,-4.496 -6.65997,-10.24301 -6.65997,-17.22302c0,-6.97998 2.22595,-12.72699 6.65997,-17.22299zm38.30103,-5.02301c-5.89905,-6.06598 -13.23505,-9.09399 -22,-9.09399c-8.77405,0 -16.10602,3.02802 -21.992,9.09399c-5.90302,6.05902 -8.84003,13.47601 -8.84003,22.246c0,8.77002 2.93701,16.18802 8.84003,22.246c5.88599,6.06702 13.21796,9.09802 21.992,9.09802c8.71899,0 16.03497,-3.04703 21.961,-9.13702c5.91797,-6.09 8.87897,-13.492 8.87897,-22.207c0,-8.76999 -2.95398,-16.18698 -8.83997,-22.246"/>
    <path fill-rule="nonzero" fill="#ffffff" id="path42" d="m797.79303,382.77701l-0.711,-0.703c4.60602,-4.67599 10.35199,-7.05099 17.01202,-7.039c6.65594,-0.01199 12.40997,2.36301 17.008,7.039c4.63599,4.67999 6.96796,10.73502 6.961,17.92599c0.00696,7.19101 -2.32501,13.246 -6.961,17.92599l0,0c-4.59802,4.67603 -10.35205,7.05103 -17.008,7.039c-6.66003,0.01202 -12.40601,-2.36298 -17.01202,-7.039l0,0c-4.625,-4.67999 -6.961,-10.73499 -6.94897,-17.92599c-0.01202,-7.19098 2.32397,-13.246 6.94897,-17.92599l0.711,0.703l0.711,0.703c-4.242,4.31699 -6.36298,9.74701 -6.37097,16.51999c0.008,6.77301 2.12897,12.203 6.37097,16.52002l0,0c4.28101,4.31598 9.39398,6.43298 15.59003,6.44498c6.19098,-0.01199 11.31598,-2.129 15.586,-6.44498l0,0c4.25,-4.31702 6.37097,-9.74701 6.37897,-16.52002c-0.008,-6.77298 -2.12897,-12.203 -6.37897,-16.51999c-4.27002,-4.31601 -9.39502,-6.43301 -15.586,-6.44501c-6.19604,0.01199 -11.30902,2.129 -15.59003,6.44501l-0.711,-0.703zm38.30103,-5.02301l-0.71503,0.69501c-5.73401,-5.875 -12.74597,-8.77701 -21.28497,-8.789c-8.54303,0.01199 -15.55505,2.914 -21.27802,8.789l-0.02704,0.03101l0.02704,-0.03101c-5.72198,5.89502 -8.54602,13.004 -8.55402,21.55099c0.008,8.547 2.83203,15.65601 8.55402,21.55099l0,0c5.72296,5.875 12.73499,8.78101 21.27802,8.79303c8.48395,-0.01202 15.47998,-2.93002 21.24597,-8.83603c5.742,-5.922 8.58203,-13.01999 8.59399,-21.508c-0.01196,-8.547 -2.84399,-15.65598 -8.55499,-21.55099l0.71503,-0.69501l0.71899,-0.69498c6.06195,6.22598 9.12799,13.94897 9.12097,22.94098c0.00702,8.94101 -3.07098,16.64801 -9.16101,22.90201c-6.09296,6.27802 -13.72595,9.453 -22.67896,9.44202c-9,0.01099 -16.65601,-3.14902 -22.711,-9.40302l0,0.004c-6.07404,-6.23001 -9.12903,-13.953 -9.12103,-22.94501c-0.008,-8.992 3.047,-16.715 9.12103,-22.94498l0.02698,-0.02802l-0.02698,0.03201c6.05499,-6.254 13.711,-9.40701 22.711,-9.39902c8.99597,-0.008 16.65198,3.14502 22.71899,9.39902l-0.71899,0.69498"/>
    <path fill-rule="nonzero" fill="#ffffff" id="path44" d="m855.75403,370l0,60l9.383,0l29.16003,-46.67599l0.33197,0l-0.33197,11.56299l0,35.11301l7.71497,0l0,-60l-8.047,0l-30.508,48.93799l-0.33203,0l0.33203,-11.56699l0,-37.371l-7.703,0"/>
    <path fill-rule="nonzero" fill="#ffffff" id="path46" d="m855.75403,370l1,0l0,59l7.828,0l29.15997,-46.67599l0.88702,0l1.02698,0l-0.35895,12.578l0,34.09799l5.71497,0l0,-58l-6.492,0l-30.508,48.93799l-0.88702,0l-1.02698,0l0.35901,-12.58298l0,-36.35501l-6.703,0l0,-1l1,0l-1,0l0,-1l7.703,0l1,0l0,38.38699l-0.33203,11.578l-1,-0.02701l0,-1l0.33203,0l0,1l-0.84802,-0.53198l30.80096,-49.40601l8.60199,0l1,0l0,62l-8.71497,0l-1,0l0,-36.125l0.33197,-11.578l1,0.02701l0,1l-0.33197,0l0,-1l0.84796,0.53101l-29.45398,47.14499l-9.93701,0l-1,0l0,-62l1,0l0,1"/>
    <path fill-rule="nonzero" fill="#ffffff" id="path48" d="m1169.35999,200l18.66003,0l0,125.01199l-18.66003,0l0,-125.01199zm168.06995,79.98001l-21.38989,-54.19901l-0.64001,0l-22.20007,54.19901l-20.09998,0l33.29004,-75.75301l-18.97998,-42.13701l19.46997,0l51.29993,117.89001l-20.75,0zm-105.81995,-65.78101c-6.12,0 -14.64001,3.05501 -14.64001,10.61699c0,9.649 10.62,13.34801 19.78003,13.34801c8.20996,0 12.05994,-1.769 17.05005,-4.18401c-1.45007,-11.578 -11.42004,-19.78099 -22.19006,-19.78099zm2.25,68.51599c-13.51001,0 -27.5,-5.953 -33.29004,-19.14099l16.56006,-6.914c3.54004,6.914 10.13,9.168 17.04993,9.168c9.65002,0 19.46008,-5.793 19.62012,-16.086l0,-1.285c-3.38,1.92999 -10.61011,4.82401 -19.46008,4.82401c-17.84998,0 -36.03003,-9.808 -36.03003,-28.14401c0,-16.72699 14.64001,-27.504 31.04004,-27.504c12.55005,0 19.45996,5.629 23.81006,12.222l0.64001,0l0,-9.64799l18.00989,0l0,47.92999c0,22.19101 -16.55994,34.578 -37.94995,34.578zm-115.31995,-17.953l-26.54004,0l0,42.85101l26.54004,0c13.94995,0 21.87,-11.55002 21.87,-21.42502c0,-9.68799 -7.92004,-21.42599 -21.87,-21.42599zm-0.47998,60.25l-44.70996,0l0,-125.01199l18.6499,0l0,47.36301l26.06006,0c20.67993,0 41.00989,14.97299 41.00989,38.82498c0,23.85101 -20.32996,38.82401 -41.00989,38.82401zm-243.81006,-110.836c-12.89099,0 -23.68402,10.793 -23.68402,25.617c0,14.98 10.79303,25.93701 23.68402,25.93701c12.72699,0 22.71503,-10.95702 22.71503,-25.93701c0,-14.82401 -9.98804,-25.617 -22.71503,-25.617zm21.42603,58.80402l-0.64502,0c-4.18701,4.99298 -12.24603,9.504 -22.39398,9.504c-21.26605,0 -40.758,-18.68701 -40.758,-42.69102c0,-23.84399 19.49194,-42.37099 40.758,-42.37099c10.14795,0 18.20697,4.51201 22.39398,9.66399l0.64502,0l0,-6.12099c0,-16.274 -8.69904,-24.97299 -22.71503,-24.97299c-11.43799,0 -18.52698,8.21899 -21.42999,15.14499l-16.26898,-6.76599c4.672,-11.27701 17.078,-25.133 37.69897,-25.133c21.90997,0 40.43701,12.89099 40.43701,44.30499l0,76.36301l-17.72198,0l0,-6.92599zm30.60895,-72.98001l18.68799,0l0,125.01599l-18.68799,0l0,-125.01599zm46.23798,41.242c-0.48401,16.43399 12.72705,24.80899 22.23102,24.80899c7.41602,0 13.69598,-3.703 15.78601,-9.02399l-38.01703,-15.785zm57.99707,14.17599c-3.54004,9.508 -14.34003,27.06601 -36.41107,27.06601c-21.90997,0 -40.11298,-17.23801 -40.11298,-42.53101c0,-23.84401 18.04297,-42.53101 42.20703,-42.53101c19.49695,0 30.77698,11.922 35.44702,18.84801l-14.50006,9.668c-4.83002,-7.09 -11.44,-11.76201 -20.94702,-11.76201c-9.50397,0 -16.26898,4.351 -20.62097,12.88701l56.86798,23.52299l-1.92993,4.832zm-453.08203,14.01599l0,-18.04298l43.17499,0c-1.289,-10.149 -4.672,-17.55901 -9.828,-22.71501c-6.28101,-6.28499 -16.10901,-13.211 -33.34698,-13.211c-26.58301,0 -47.36401,21.42601 -47.36401,48.008c0,26.582 20.78101,48.01102 47.36401,48.01102c14.33899,0 24.80798,-5.64001 32.54199,-12.89001l12.72699,12.72601c-10.79303,10.31299 -25.133,18.207 -45.26898,18.207c-36.41101,0 -67.02002,-29.64401 -67.02002,-66.05402c0,-36.40999 30.60901,-66.05099 67.02002,-66.05099c19.65601,0 34.47595,6.44101 46.07397,18.52701c11.922,11.922 15.62903,28.67599 15.62903,42.207c0,4.19199 -0.32104,8.05499 -0.96899,11.27798l-60.73401,0zm110.789,-55.258c-12.89099,0 -24.008,10.63301 -24.008,25.77701c0,15.30499 11.117,25.77701 24.008,25.77701c12.88599,0 24.00299,-10.47202 24.00299,-25.77701c0,-15.144 -11.117,-25.77701 -24.00299,-25.77701zm0,68.30801c-23.52405,0 -42.69598,-17.88202 -42.69598,-42.53101c0,-24.48801 19.172,-42.53101 42.69598,-42.53101c23.51898,0 42.69098,18.043 42.69098,42.53101c0,24.64899 -19.172,42.53101 -42.69098,42.53101zm93.13202,-68.30801c-12.88605,0 -24.00403,10.63301 -24.00403,25.77701c0,15.30499 11.11798,25.77701 24.00403,25.77701c12.88696,0 24.00397,-10.47202 24.00397,-25.77701c0,-15.144 -11.117,-25.77701 -24.00397,-25.77701zm0,68.30801c-23.52301,0 -42.69104,-17.88202 -42.69104,-42.53101c0,-24.48801 19.16803,-42.53101 42.69104,-42.53101c23.51996,0 42.69196,18.043 42.69196,42.53101c0,24.64899 -19.172,42.53101 -42.69196,42.53101"/>
    <g id="g50">
     <g clip-path="url(#clipPath56)" id="g52">
      <path fill-rule="nonzero" fill="url(#linearGradient70)" id="path72" d="m205.09801,176.105l-0.743,0.711c-2.91,3.07901 -4.62801,7.86 -4.62801,14.05101l0,-1.457l0,0l0,221.16c0,0.01999 0,0.035 0,0.05099c0,-0.01901 0,-0.035 0,-0.05499l0,-1.461c0,6.70398 2.00301,11.754 5.35901,14.78198l123.89799,-123.89499l-123.886,-123.88701m-5.371,234.528c0,0.55099 0.015,1.086 0.043,1.61301c-0.028,-0.52301 -0.043,-1.06201 -0.043,-1.61301m0.043,1.63699c0,0.00702 0,0.01501 0.00301,0.02301c-0.00301,-0.008 -0.00301,-0.01599 -0.00301,-0.02301m0.00301,0.07001c0,0.004 0,0.008 0,0.01199c0,-0.004 0,-0.008 0,-0.01199"/>
     </g>
    </g>
    <g id="g74">
     <g clip-path="url(#clipPath80)" id="g76">
      <path fill-rule="nonzero" fill="url(#linearGradient90)" id="path92" d="m370.27701,257.215l0,0l0.94202,0.535l48.92899,27.80099c4.66501,2.65201 7.77399,5.867 9.32501,9.26901c-1.54703,-3.40201 -4.65701,-6.621 -9.32501,-9.27301l-48.92899,-27.80099l-0.94202,-0.53101m0.01199,1.465l-41.30499,41.31201l41.30099,41.30499l49.86301,-28.328c6.332,-3.59799 9.88699,-8.23499 10.48099,-12.97299c0,-0.004 0,-0.01199 0,-0.01901c-0.59399,-4.72699 -4.14899,-9.36798 -10.48099,-12.965l-49.85901,-28.332"/>
     </g>
    </g>
    <g id="g94">
     <g clip-path="url(#clipPath100)" id="g96">
      <path fill-rule="nonzero" fill="url(#linearGradient106)" id="path108" d="m213.92999,171.38699c-3.461,0 -6.481,1.125 -8.836,3.25l0.004,0.004c2.355,-2.125 5.379,-3.254 8.84,-3.254c0.3,0 0.605,0.008 0.914,0.02299c-0.313,-0.015 -0.62199,-0.02299 -0.922,-0.02299m0.004,1.465c-3.461,-0.004 -6.481,1.125 -8.836,3.25l0,0l0,0.00301l123.88599,123.88701l41.30502,-41.31201l0,0l-145.15201,-82.47299c-4.01601,-2.27701 -7.821,-3.355 -11.203,-3.355m-8.871,1.812c-0.21899,0.19901 -0.43401,0.41 -0.645,0.629l0.645,-0.629"/>
     </g>
    </g>
    <g id="g110">
     <g clip-path="url(#clipPath116)" id="g112">
      <path fill-rule="nonzero" fill="url(#linearGradient128)" id="path130" d="m328.98401,299.992l0,0l-123.89801,123.89499c2.355,2.121 5.371,3.246 8.828,3.246c3.39099,0 7.19901,-1.082 11.22299,-3.36301l145.14801,-82.47299l-41.30103,-41.30499m42.23502,42.23798l-146.082,83c-4.024,2.28201 -7.832,3.36401 -11.22301,3.36401c-0.01599,0 -0.02699,0 -0.043,0c0.02,0 0.035,0 0.05901,0c3.383,0 7.187,-1.078 11.207,-3.36002l146.082,-83.00397m-157.379,86.36398l0,0l0,0"/>
     </g>
    </g>
    <path fill-rule="nonzero" fill="#000000" id="path132" d="m214.85201,171.41c3.14401,0.17999 6.625,1.26199 10.28499,3.336l145.14001,82.46899l0,0l-145.14001,-82.46899c-3.657,-2.078 -7.14098,-3.15601 -10.28499,-3.336m-9.75801,3.22699l-0.03099,0.02701c0.011,-0.008 0.02299,-0.019 0.03099,-0.02701l0,0m-0.67599,0.65601l-0.063,0.062l0,0.004c0.024,-0.02299 0.043,-0.04599 0.063,-0.06599"/>
    <g id="g134">
     <g clip-path="url(#clipPath140)" id="g136">
      <path fill-rule="nonzero" fill="url(#linearGradient150)" id="path152" d="m370.27701,257.215l0,0l0.94202,0.535l-0.94202,-0.535"/>
     </g>
    </g>
    <g id="g154">
     <g clip-path="url(#clipPath160)" id="g156">
      <path fill-rule="nonzero" fill="url(#linearGradient166)" id="path168" d="m213.938,171.38699c-3.461,0 -6.485,1.129 -8.84,3.254l-0.00401,-0.004c-0.008,0.008 -0.01999,0.019 -0.03099,0.02699l-0.645,0.629c-0.02,0.02 -0.039,0.043 -0.063,0.06601l0.74301,0.743c2.355,-2.125 5.375,-3.254 8.836,-3.25c3.38199,0 7.187,1.078 11.20299,3.355l145.15201,82.47301l0.92999,-0.92999l-0.94199,-0.535l-145.14001,-82.46901c-3.65999,-2.07399 -7.14099,-3.15599 -10.28499,-3.336c-0.30901,-0.015 -0.614,-0.02299 -0.914,-0.02299"/>
     </g>
    </g>
    <path fill-rule="nonzero" fill="#000000" id="path170" d="m204.355,175.355c-2.90999,3.07901 -4.62799,7.86 -4.62799,14.05101l0,0.004c0,-6.19501 1.718,-10.972 4.62799,-14.05101l0,0l0,0l0,-0.004"/>
    <g id="g172">
     <g clip-path="url(#clipPath178)" id="g174">
      <path fill-rule="nonzero" fill="url(#linearGradient192)" id="path194" d="m204.355,175.35899l0,0c-2.90999,3.07899 -4.62799,7.856 -4.62799,14.05099l0,1.457c0,-6.19099 1.718,-10.972 4.62799,-14.05099l0.74301,-0.711l-0.74301,-0.746"/>
     </g>
    </g>
    <g id="g196">
     <g clip-path="url(#clipPath202)" id="g198">
      <path fill-rule="nonzero" fill="url(#linearGradient208)" id="path210" d="m204.355,175.35899l0,0l0,0l0.74301,0.746l0,-0.00301l-0.74301,-0.743"/>
     </g>
    </g>
    <path fill-rule="nonzero" fill="#000000" id="path212" d="m429.47299,294.82001c0.76901,1.68799 1.15601,3.422 1.15601,5.15701c0,0.00299 0,0.00699 0,0.00699c0,-1.73801 -0.38699,-3.47198 -1.15601,-5.164"/>
    <g id="g214">
     <g clip-path="url(#clipPath220)" id="g216">
      <path fill-rule="nonzero" fill="url(#linearGradient230)" id="path232" d="m371.21899,257.75l0,0l-0.92999,0.92999l49.85901,28.332c6.332,3.59702 9.88699,8.23801 10.48099,12.965c0,-1.73499 -0.38699,-3.46899 -1.15601,-5.15698c-1.55099,-3.40201 -4.66,-6.617 -9.32498,-9.26901l-48.92902,-27.80099"/>
     </g>
    </g>
    <path fill-rule="nonzero" fill="#404040" id="path234" d="m430.629,299.992l0,0.004c-0.004,5.23099 -3.5,10.461 -10.48099,14.42999l-48.92902,27.80103l-0.004,0l0.004,0.00299l48.92902,-27.79999c6.98898,-3.96902 10.48898,-9.207 10.48099,-14.43802"/>
    <g id="g236">
     <g clip-path="url(#clipPath242)" id="g238">
      <path fill-rule="nonzero" fill="url(#linearGradient252)" id="path254" d="m430.629,299.996c-0.59399,4.73801 -4.14899,9.375 -10.48099,12.97299l-49.86301,28.328l0.92999,0.92999l0.004,0l48.92902,-27.80099c6.98099,-3.96899 10.47699,-9.19901 10.48099,-14.42999"/>
     </g>
    </g>
    <path fill-rule="nonzero" fill="#404040" id="path256" d="m199.72701,410.621c0,0.004 0,0.008 0,0.01199c0,-0.004 0,-0.008 0,-0.01199m0.043,1.625c0,0.008 0,0.01599 0,0.02399c0,-0.008 0,-0.01599 0,-0.02399m0.00301,0.047c0,0.01599 0,0.03101 0,0.047c0,-0.01599 0,-0.03101 0,-0.047m0,0.05899c0.57899,10.27301 6.16499,16.207 14.067,16.242c-3.42599,-0.01999 -6.41,-1.14499 -8.746,-3.25l0,0.004l-0.028,-0.02798c-0.246,-0.22202 -0.48,-0.457 -0.711,-0.69901l0,0c-2.625,-2.77701 -4.28101,-6.93701 -4.582,-12.26901"/>
    <g id="g258">
     <g clip-path="url(#clipPath264)" id="g260">
      <path fill-rule="nonzero" fill="url(#linearGradient278)" id="path280" d="m199.72701,409.10501l0,1.461c0,0.01999 0,0.03601 0,0.05499c0,0.004 0,0.008 0,0.01199c0,0.55103 0.015,1.09003 0.043,1.61301c0,0.008 0,0.01602 0,0.02402c0,0.00699 0,0.01498 0.00301,0.02298c0,0.01602 0,0.03101 0,0.047c0,0.00403 0,0.00803 0,0.01202c0.30099,5.332 1.957,9.492 4.58199,12.26898l0,0l0,0l0.731,-0.73398c-3.356,-3.02802 -5.35899,-8.078 -5.35899,-14.78201m5.33899,16.215l0.028,0.02802c-0.008,-0.01202 -0.01999,-0.02002 -0.028,-0.02802"/>
     </g>
    </g>
    <path fill-rule="nonzero" fill="#404040" id="path282" d="m213.84,428.59399c0.00801,0 0.019,0 0.03101,0c-0.01201,0 -0.02299,0 -0.03101,0"/>
    <g id="g284">
     <g clip-path="url(#clipPath290)" id="g286">
      <path fill-rule="nonzero" fill="url(#linearGradient302)" id="path304" d="m370.285,341.297l-145.14801,82.47299c-4.024,2.28101 -7.832,3.36301 -11.22301,3.36301c-3.457,0 -6.47299,-1.125 -8.828,-3.246l-0.73099,0.73401l0,0c0.23099,0.24197 0.465,0.47699 0.711,0.69897c0.008,0.00803 0.01999,0.01602 0.028,0.02402c2.336,2.10501 5.31999,3.23001 8.746,3.25l0,0c0.008,0 0.019,0 0.03099,0c0.01601,0 0.02701,0 0.043,0c3.39101,0 7.19901,-1.082 11.22301,-3.36401l146.082,-83l-0.004,-0.00299l-0.92999,-0.92999"/>
     </g>
    </g>
   </g>
  </g>
 </g>
</svg>